<?xml version="1.0" encoding="UTF-8"?>
<!DOCTYPE svg PUBLIC "-//W3C//DTD SVG 1.1//EN" "http://www.w3.org/Graphics/SVG/1.1/DTD/svg11.dtd">
<svg version="1.1" xmlns="http://www.w3.org/2000/svg" xmlns:xlink="http://www.w3.org/1999/xlink" x="0" y="0" width="1700" height="500" viewBox="0, 0, 1700, 500">
  <g id="Background">
    <rect x="0" y="0" width="1700" height="500" fill="#000000" fill-opacity="0"/>
  </g>
  <g id="Layer_1">
    <path d="M0,287.5 L0,68.75 L187.5,0 L375,68.75 L375,287.5 C375,375.85 275.392,437.5 187.5,500 C99.608,437.5 0,375.85 0,287.5 z" fill="#2E5266" id="Layer_1"/>
    <path d="M45,278.5 L45,112.25 L187.5,60 L330,112.25 L330,278.5 C330,345.646 254.298,392.5 187.5,440 C120.702,392.5 45,345.646 45,278.5 z" fill="#FF5E5B" id="Layer_1"/>
    <path d="M90,269.5 L90,155.75 L187.5,120 L285,155.75 L285,269.5 C285,315.442 233.204,347.5 187.5,380 C141.796,347.5 90,315.442 90,269.5 z" fill="#FFED66" id="Layer_1"/>
    <path d="M135,260.5 L135,199.25 L187.5,180 L240,199.25 L240,260.5 C240,285.238 212.11,302.5 187.5,320 C162.89,302.5 135,285.238 135,260.5 z" fill="#2D5266" id="Layer_1"/>
    <path d="M584.351,179.742 L584.351,262.834 Q584.351,295.896 562.599,312.101 Q540.847,328.306 504.522,328.306 Q484.728,328.306 468.631,323.195 Q452.535,318.083 442.964,309.817 Q423.17,292.633 423.17,272.839 Q423.17,270.882 424.584,269.468 Q425.998,268.054 427.955,268.054 L477.114,268.054 Q481.03,268.054 482.552,272.839 Q486.685,285.89 503.434,285.89 Q513.657,285.89 519.639,281.105 Q525.621,276.32 525.621,267.401 L525.621,218.46 L446.227,218.46 Q443.834,218.46 442.094,216.72 Q440.354,214.98 440.354,212.587 L440.354,179.742 Q440.354,177.349 442.094,175.609 Q443.834,173.869 446.227,173.869 L578.478,173.869 Q580.87,173.869 582.611,175.609 Q584.351,177.349 584.351,179.742 z" fill="#2D5266"/>
    <path d="M775.549,236.731 L775.549,263.269 Q775.549,285.673 764.673,300.682 Q753.797,315.69 736.178,321.998 Q718.559,328.306 694.632,328.306 Q670.705,328.306 653.086,321.998 Q635.467,315.69 624.592,300.682 Q613.716,285.673 613.716,262.834 L613.716,237.166 Q613.716,204.321 636.229,188.007 Q658.742,171.694 694.632,171.694 Q730.523,171.694 753.036,188.007 Q775.549,204.321 775.549,236.731 z M672.445,232.599 L672.445,267.401 Q672.445,276.32 678.427,281.105 Q684.409,285.89 694.632,285.89 Q704.856,285.89 710.837,280.996 Q716.819,276.102 716.819,267.184 L716.819,232.816 Q716.819,223.898 710.837,219.004 Q704.856,214.11 694.632,214.11 Q684.409,214.11 678.427,218.895 Q672.445,223.68 672.445,232.599 z" fill="#2D5266"/>
    <path d="M962.397,278.277 Q962.397,326.131 901.057,326.131 L811.439,326.131 Q809.047,326.131 807.307,324.391 Q805.566,322.651 805.566,320.258 L805.566,179.742 Q805.566,177.349 807.307,175.609 Q809.047,173.869 811.439,173.869 L898.882,173.869 Q929.769,173.869 944.452,185.071 Q959.134,196.273 959.134,218.895 L959.134,219.547 Q959.134,229.988 953.479,237.384 Q947.823,244.78 941.733,246.737 Q950.216,249.347 956.306,258.157 Q962.397,266.966 962.397,278.277 z M862.121,267.401 L862.121,288.718 L893.661,288.718 Q898.664,288.718 901.166,285.347 Q903.667,281.975 903.667,277.842 L903.667,277.625 Q903.667,273.492 900.948,270.447 Q898.229,267.401 893.661,267.401 z M897.794,228.031 Q900.187,224.768 900.187,220.853 Q900.187,216.937 897.903,214.11 Q895.619,211.282 891.269,211.282 L862.121,211.282 L862.121,231.076 L891.269,231.076 Q895.619,231.076 897.794,228.031 z" fill="#2D5266"/>
    <path d="M1092.037,173.869 L1136.846,173.869 Q1139.239,173.869 1140.979,175.609 Q1142.719,177.349 1142.719,179.742 L1142.719,320.258 Q1142.719,322.651 1140.979,324.391 Q1139.239,326.131 1136.846,326.131 L1092.037,326.131 Q1089.645,326.131 1087.905,324.391 Q1086.164,322.651 1086.164,320.258 L1086.164,273.927 L1042.661,273.927 L1042.661,320.258 Q1042.661,322.651 1040.921,324.391 Q1039.181,326.131 1036.788,326.131 L991.979,326.131 Q989.587,326.131 987.846,324.5 Q986.106,322.868 986.106,320.258 L986.106,179.742 Q986.106,177.349 987.846,175.609 Q989.587,173.869 991.979,173.869 L1036.788,173.869 Q1039.181,173.869 1040.921,175.609 Q1042.661,177.349 1042.661,179.742 L1042.661,224.333 L1086.164,224.333 L1086.164,179.742 Q1086.164,177.349 1087.905,175.609 Q1089.645,173.869 1092.037,173.869 z" fill="#2D5266"/>
    <path d="M1232.989,283.715 L1319.779,283.715 Q1322.172,283.715 1323.912,285.455 Q1325.652,287.196 1325.652,289.588 L1325.652,320.258 Q1325.652,322.651 1323.912,324.391 Q1322.172,326.131 1319.779,326.131 L1182.307,326.131 Q1179.915,326.131 1178.175,324.391 Q1176.434,322.651 1176.434,320.258 L1176.434,179.742 Q1176.434,177.349 1178.175,175.609 Q1179.915,173.869 1182.307,173.869 L1317.604,173.869 Q1319.996,173.869 1321.736,175.609 Q1323.477,177.349 1323.477,179.742 L1323.477,210.412 Q1323.477,212.804 1321.736,214.545 Q1319.996,216.285 1317.604,216.285 L1232.989,216.285 L1232.989,229.988 L1305.64,229.988 Q1308.033,229.988 1309.773,231.728 Q1311.513,233.469 1311.513,235.861 L1311.513,264.139 Q1311.513,266.531 1309.773,268.271 Q1308.033,270.012 1305.64,270.012 L1232.989,270.012 z" fill="#2D5266"/>
    <path d="M1520.548,319.388 Q1520.983,320.258 1520.983,321.781 Q1520.983,323.303 1519.569,324.717 Q1518.155,326.131 1516.197,326.131 L1466.821,326.131 Q1460.295,326.131 1457.685,320.693 L1438.543,277.625 L1420.272,277.625 L1420.272,320.258 Q1420.272,322.651 1418.532,324.391 Q1416.792,326.131 1414.399,326.131 L1367.415,326.131 Q1365.022,326.131 1363.282,324.391 Q1361.542,322.651 1361.542,320.258 L1361.542,179.742 Q1361.542,177.349 1363.282,175.609 Q1365.022,173.869 1367.415,173.869 L1452.03,173.869 Q1481.829,173.869 1499.231,188.007 Q1516.632,202.146 1516.632,226.508 Q1516.632,256.09 1493.793,269.359 z M1420.272,214.327 L1420.272,237.384 L1447.462,237.384 Q1452.247,237.384 1454.857,234.23 Q1457.468,231.076 1457.468,226.291 Q1457.468,221.505 1454.966,217.916 Q1452.465,214.327 1447.462,214.327 z" fill="#2D5266"/>
    <path d="M1700,236.731 L1700,263.269 Q1700,285.673 1689.124,300.682 Q1678.248,315.69 1660.629,321.998 Q1643.01,328.306 1619.083,328.306 Q1595.156,328.306 1577.537,321.998 Q1559.918,315.69 1549.043,300.682 Q1538.167,285.673 1538.167,262.834 L1538.167,237.166 Q1538.167,204.321 1560.68,188.007 Q1583.193,171.694 1619.083,171.694 Q1654.974,171.694 1677.487,188.007 Q1700,204.321 1700,236.731 z M1596.896,232.599 L1596.896,267.401 Q1596.896,276.32 1602.878,281.105 Q1608.86,285.89 1619.083,285.89 Q1629.307,285.89 1635.288,280.996 Q1641.27,276.102 1641.27,267.184 L1641.27,232.816 Q1641.27,223.898 1635.288,219.004 Q1629.307,214.11 1619.083,214.11 Q1608.86,214.11 1602.878,218.895 Q1596.896,223.68 1596.896,232.599 z" fill="#2D5266"/>
  </g>
</svg>
