<?xml version="1.0" encoding="UTF-8"?>
<!DOCTYPE svg PUBLIC "-//W3C//DTD SVG 1.1//EN" "http://www.w3.org/Graphics/SVG/1.1/DTD/svg11.dtd">
<svg version="1.1" xmlns="http://www.w3.org/2000/svg" xmlns:xlink="http://www.w3.org/1999/xlink" x="0" y="0" width="1000" height="1000" viewBox="0, 0, 1000, 1000">
  <g id="Layer_1">
    <path d="M125,575 L125,137.5 L500,0 L875,137.5 L875,575 C875,751.7 675.783,875 500,1000 C324.217,875 125,751.7 125,575 z" fill="#2E5266" id="Layer_1"/>
    <path d="M215,557 L215,224.5 L500,120 L785,224.5 L785,557 C785,691.292 633.595,785 500,880 C366.405,785 215,691.292 215,557 z" fill="#FF5E5B" id="Layer_1"/>
    <path d="M305,539 L305,311.5 L500,240 L695,311.5 L695,539 C695,630.884 591.407,695 500,760 C408.593,695 305,630.884 305,539 z" fill="#FFED66" id="Layer_1"/>
    <path d="M395,521 L395,398.5 L500,360 L605,398.5 L605,521 C605,570.476 549.219,605 500,640 C450.781,605 395,570.476 395,521 z" fill="#2D5266" id="Layer_1"/>
  </g>
</svg>
